<!-- Generated by IcoMoon.io -->
<svg version="1.1" xmlns="http://www.w3.org/2000/svg" width="22" height="28" viewBox="0 0 22 28">
<title>apple</title>
<path d="M21.766 18.984c-0.391 1.234-1.016 2.547-1.922 3.906-1.344 2.047-2.688 3.063-4.016 3.063-0.531 0-1.25-0.172-2.188-0.5-0.922-0.344-1.719-0.5-2.359-0.5-0.625 0-1.375 0.172-2.219 0.516-0.859 0.359-1.547 0.531-2.063 0.531-1.609 0-3.156-1.359-4.703-4.047-1.516-2.688-2.297-5.297-2.297-7.859 0-2.391 0.594-4.328 1.766-5.844 1.172-1.5 2.641-2.25 4.438-2.25 0.766 0 1.672 0.156 2.766 0.469 1.078 0.313 1.797 0.469 2.156 0.469 0.453 0 1.203-0.172 2.234-0.531 1.031-0.344 1.937-0.531 2.703-0.531 1.25 0 2.359 0.344 3.328 1.016 0.547 0.375 1.094 0.906 1.625 1.563-0.812 0.688-1.406 1.297-1.781 1.844-0.672 0.969-1.016 2.047-1.016 3.234 0 1.281 0.359 2.453 1.078 3.484s1.547 1.687 2.469 1.969zM15.891 0.656c0 0.641-0.156 1.359-0.453 2.125-0.313 0.781-0.797 1.5-1.453 2.156-0.562 0.562-1.125 0.938-1.687 1.125-0.359 0.109-0.891 0.203-1.625 0.266 0.031-1.547 0.438-2.891 1.219-4.016s2.094-1.891 3.906-2.312c0.031 0.141 0.063 0.25 0.078 0.344 0 0.109 0.016 0.203 0.016 0.313z"></path>
</svg>
