<!-- Generated by IcoMoon.io -->
<svg version="1.1" xmlns="http://www.w3.org/2000/svg" width="32" height="28" viewBox="0 0 32 28">
<path d="M28.875 5.297h-7.984v1.937h7.984v-1.937zM24.938 11.953c-1.875 0-3.125 1.172-3.25 3.047h6.375c-0.172-1.891-1.156-3.047-3.125-3.047zM25.188 21.094c1.188 0 2.719-0.641 3.094-1.859h3.453c-1.062 3.266-3.266 4.797-6.672 4.797-4.5 0-7.297-3.047-7.297-7.484 0-4.281 2.953-7.547 7.297-7.547 4.469 0 6.937 3.516 6.937 7.734 0 0.25-0.016 0.5-0.031 0.734h-10.281c0 2.281 1.203 3.625 3.5 3.625zM4.328 20.312h4.625c1.766 0 3.203-0.625 3.203-2.609 0-2.016-1.203-2.812-3.109-2.812h-4.719v5.422zM4.328 11.922h4.391c1.547 0 2.641-0.672 2.641-2.344 0-1.813-1.406-2.25-2.969-2.25h-4.062v4.594zM0 3.969h9.281c3.375 0 6.297 0.953 6.297 4.875 0 1.984-0.922 3.266-2.688 4.109 2.422 0.688 3.594 2.516 3.594 4.984 0 4-3.359 5.719-6.937 5.719h-9.547v-19.688z"></path>
</svg>
