<!-- Generated by IcoMoon.io -->
<svg version="1.1" xmlns="http://www.w3.org/2000/svg" width="28" height="28" viewBox="0 0 28 28">
<title>dropbox</title>
<path d="M6.281 11.047l7.719 4.766-5.344 4.453-7.656-4.984zM21.688 19.719v1.687l-7.656 4.578v0.016l-0.016-0.016-0.016 0.016v-0.016l-7.641-4.578v-1.687l2.297 1.5 5.344-4.438v-0.031l0.016 0.016 0.016-0.016v0.031l5.359 4.438zM8.656 1.844l5.344 4.453-7.719 4.75-5.281-4.219zM21.719 11.047l5.281 4.234-7.641 4.984-5.359-4.453zM19.359 1.844l7.641 4.984-5.281 4.219-7.719-4.75z"></path>
</svg>
