<!-- Generated by IcoMoon.io -->
<svg version="1.1" xmlns="http://www.w3.org/2000/svg" width="26" height="28" viewBox="0 0 26 28">
<title>export</title>
<path d="M22 15.453v4.047c0 2.484-2.016 4.5-4.5 4.5h-13c-2.484 0-4.5-2.016-4.5-4.5v-13c0-2.484 2.016-4.5 4.5-4.5h3.984c0.266 0 0.5 0.219 0.5 0.5 0 0.25-0.172 0.453-0.406 0.5-0.781 0.266-1.484 0.578-2.078 0.938-0.078 0.031-0.156 0.063-0.25 0.063h-1.75c-1.375 0-2.5 1.125-2.5 2.5v13c0 1.375 1.125 2.5 2.5 2.5h13c1.375 0 2.5-1.125 2.5-2.5v-3.344c0-0.187 0.109-0.359 0.281-0.453 0.313-0.141 0.594-0.344 0.844-0.578 0.141-0.141 0.359-0.203 0.547-0.125s0.328 0.25 0.328 0.453zM25.703 7.703l-6 6c-0.187 0.203-0.438 0.297-0.703 0.297-0.125 0-0.266-0.031-0.391-0.078-0.359-0.156-0.609-0.516-0.609-0.922v-3h-2.5c-3.437 0-5.625 0.656-6.844 2.047-1.266 1.453-1.641 3.797-1.156 7.391 0.031 0.219-0.109 0.438-0.313 0.531-0.063 0.016-0.125 0.031-0.187 0.031-0.156 0-0.313-0.078-0.406-0.203-0.109-0.156-2.594-3.672-2.594-6.797 0-4.188 1.313-9 11.5-9h2.5v-3c0-0.406 0.25-0.766 0.609-0.922 0.125-0.047 0.266-0.078 0.391-0.078 0.266 0 0.516 0.109 0.703 0.297l6 6c0.391 0.391 0.391 1.016 0 1.406z"></path>
</svg>
