<!-- Generated by IcoMoon.io -->
<svg version="1.1" xmlns="http://www.w3.org/2000/svg" width="24" height="28" viewBox="0 0 24 28">
<title>flickr</title>
<path d="M19.5 2c2.484 0 4.5 2.016 4.5 4.5v15c0 2.484-2.016 4.5-4.5 4.5h-15c-2.484 0-4.5-2.016-4.5-4.5v-15c0-2.484 2.016-4.5 4.5-4.5h15zM10.906 14c0-1.828-1.484-3.313-3.313-3.313s-3.313 1.484-3.313 3.313 1.484 3.313 3.313 3.313 3.313-1.484 3.313-3.313zM19.719 14c0-1.828-1.484-3.313-3.313-3.313s-3.313 1.484-3.313 3.313 1.484 3.313 3.313 3.313 3.313-1.484 3.313-3.313z"></path>
</svg>
