<!-- Generated by IcoMoon.io -->
<svg version="1.1" xmlns="http://www.w3.org/2000/svg" width="20" height="28" viewBox="0 0 20 28">
<title>foursquare</title>
<path d="M15.625 6.781l0.578-3.031c0.109-0.5-0.266-0.891-0.688-0.891h-11.125c-0.5 0-0.844 0.453-0.844 0.844v17.203c0 0.047 0.047 0.063 0.094 0.016 4.094-4.922 4.547-5.5 4.547-5.5 0.469-0.547 0.656-0.641 1.344-0.641h3.734c0.516 0 0.812-0.438 0.859-0.688s0.484-2.531 0.578-2.984-0.328-0.922-0.75-0.922h-4.594c-0.609 0-1.047-0.438-1.047-1.047v-0.656c0-0.609 0.438-1.031 1.047-1.031h5.406c0.375 0 0.797-0.344 0.859-0.672zM19.172 3.313c-0.578 2.812-2.312 11.703-2.469 12.344-0.187 0.734-0.469 2.016-2.25 2.016h-4.234c-0.172 0-0.187-0.016-0.344 0.156 0 0-0.109 0.125-6.656 7.719-0.516 0.594-1.359 0.484-1.672 0.359s-0.859-0.5-0.859-1.531v-22.031c0-0.906 0.562-2.344 2.469-2.344h13.875c2.031 0 2.578 1.156 2.141 3.313zM19.172 3.313l-2.469 12.344c0.156-0.641 1.891-9.531 2.469-12.344z"></path>
</svg>
