<!-- Generated by IcoMoon.io -->
<svg version="1.1" xmlns="http://www.w3.org/2000/svg" width="24" height="28" viewBox="0 0 24 28">
<title>github-square</title>
<path d="M8.109 18.75v0c0.031-0.047 0.016-0.141-0.047-0.203-0.078-0.063-0.172-0.078-0.219-0.031-0.031 0.047-0.016 0.141 0.047 0.203 0.078 0.063 0.172 0.078 0.219 0.031zM7.672 18.109c-0.047-0.063-0.125-0.094-0.187-0.063-0.047 0.031-0.047 0.125 0 0.187 0.063 0.078 0.141 0.109 0.187 0.078v0c0.047-0.031 0.047-0.125 0-0.203zM7.031 17.484v0c0.016-0.031-0.016-0.094-0.078-0.125-0.047-0.016-0.109-0.016-0.125 0.031-0.031 0.047 0 0.094 0.063 0.125 0.063 0.016 0.125 0.016 0.141-0.031zM7.359 17.844v0c0.031-0.031 0.031-0.109-0.031-0.156-0.047-0.063-0.125-0.078-0.156-0.047-0.047 0.047-0.031 0.109 0.016 0.172 0.047 0.047 0.125 0.078 0.172 0.031zM8.703 19.016v0c0.016-0.063-0.047-0.141-0.141-0.172s-0.172 0-0.203 0.063c-0.016 0.063 0.047 0.141 0.141 0.172s0.172 0 0.203-0.063zM9.359 19.063v0c0-0.063-0.078-0.125-0.187-0.125-0.094 0-0.156 0.063-0.156 0.125s0.078 0.125 0.172 0.125 0.172-0.063 0.172-0.125zM9.969 18.953v0c-0.016-0.063-0.109-0.094-0.203-0.078s-0.156 0.078-0.141 0.141 0.094 0.109 0.187 0.094 0.156-0.094 0.156-0.156zM20 14c0-4.422-3.578-8-8-8s-8 3.578-8 8c0 3.531 2.297 6.531 5.469 7.594 0.406 0.078 0.547-0.172 0.547-0.391 0-0.187 0-0.812-0.016-1.484 0 0-2.219 0.484-2.688-0.953 0 0-0.359-0.922-0.891-1.156 0 0-0.719-0.5 0.063-0.5 0 0 0.781 0.063 1.219 0.828 0.703 1.234 1.875 0.875 2.328 0.672 0.078-0.516 0.281-0.875 0.516-1.078-1.781-0.203-3.656-0.891-3.656-3.953 0-0.875 0.313-1.578 0.828-2.141-0.078-0.203-0.359-1.016 0.078-2.125 0.672-0.203 2.203 0.828 2.203 0.828 0.641-0.187 1.313-0.266 2-0.266s1.359 0.078 2 0.266c0 0 1.531-1.031 2.203-0.828 0.438 1.109 0.156 1.922 0.078 2.125 0.516 0.562 0.828 1.266 0.828 2.141 0 3.078-1.875 3.75-3.656 3.953 0.281 0.25 0.547 0.734 0.547 1.484 0 1.062-0.016 1.922-0.016 2.188 0 0.219 0.141 0.469 0.547 0.391 3.172-1.062 5.469-4.062 5.469-7.594zM24 6.5v15c0 2.484-2.016 4.5-4.5 4.5h-15c-2.484 0-4.5-2.016-4.5-4.5v-15c0-2.484 2.016-4.5 4.5-4.5h15c2.484 0 4.5 2.016 4.5 4.5z"></path>
</svg>
