<!-- Generated by IcoMoon.io -->
<svg version="1.1" xmlns="http://www.w3.org/2000/svg" width="32" height="28" viewBox="0 0 32 28">
<title>map-o</title>
<path d="M31.563 0.172c0.266 0.187 0.438 0.5 0.438 0.828v22c0 0.406-0.25 0.781-0.625 0.922l-10 4c-0.25 0.109-0.5 0.109-0.75 0l-9.625-3.844-9.625 3.844c-0.125 0.063-0.25 0.078-0.375 0.078-0.203 0-0.391-0.063-0.562-0.172-0.266-0.187-0.438-0.5-0.438-0.828v-22c0-0.406 0.25-0.781 0.625-0.922l10-4c0.25-0.109 0.5-0.109 0.75 0l9.625 3.844 9.625-3.844c0.313-0.125 0.656-0.094 0.938 0.094zM11.5 2.281v19.844l9 3.594v-19.844zM2 5.672v19.844l8.5-3.391v-19.844zM30 22.328v-19.844l-8.5 3.391v19.844z"></path>
</svg>
