<!-- Generated by IcoMoon.io -->
<svg version="1.1" xmlns="http://www.w3.org/2000/svg" width="30" height="28" viewBox="0 0 30 28">
<title>meetup</title>
<path d="M20.844 19.281c-0.172-1.125-2.234-0.25-2.359-1.484-0.172-1.75 2.391-5.531 2.188-7-0.187-1.313-1.062-1.594-1.828-1.609-0.734-0.016-0.922 0.109-1.172 0.25-0.156 0.094-0.359 0.266-0.641-0.016-0.344-0.328-0.609-0.641-1.062-0.703-0.672-0.109-0.969 0.109-1.453 0.531-0.187 0.156-0.656 0.703-1.094 0.5-0.187-0.094-0.844-0.422-1.313-0.625-0.891-0.391-2.188 0.25-2.656 1.094-0.703 1.25-2.078 6.188-2.281 6.844-0.469 1.453 0.594 2.656 2.016 2.578 0.609-0.031 1-0.25 1.391-0.953 0.219-0.406 2.281-5.891 2.438-6.156 0.109-0.187 0.484-0.438 0.797-0.281 0.313 0.172 0.375 0.516 0.328 0.828-0.063 0.531-1.531 3.875-1.578 4.25-0.187 1.25 1.469 1.453 2.109 0.219 0.203-0.391 2.5-5.063 2.703-5.375 0.234-0.344 0.406-0.453 0.641-0.438 0.172 0 0.453 0.047 0.391 0.594-0.078 0.516-1.922 3.953-2.125 4.797-0.25 1.125 0.359 2.266 1.359 2.766 0.625 0.313 3.422 0.859 3.203-0.609zM5.984 22.656c0.063 0.313-0.125 0.609-0.438 0.672-0.297 0.063-0.594-0.125-0.656-0.438-0.063-0.297 0.125-0.609 0.422-0.672s0.609 0.125 0.672 0.438zM14.891 26.766c0.25 0.359 0.156 0.844-0.187 1.094-0.359 0.25-0.844 0.156-1.094-0.203-0.234-0.359-0.141-0.844 0.203-1.094 0.359-0.25 0.844-0.156 1.078 0.203zM2.766 14.078c-0.375 0.562-1.125 0.703-1.672 0.313-0.547-0.375-0.688-1.141-0.313-1.687 0.375-0.562 1.125-0.703 1.672-0.328 0.547 0.391 0.688 1.141 0.313 1.703zM22.922 24.656c0.391 0.578 0.25 1.375-0.328 1.781-0.578 0.391-1.359 0.25-1.75-0.328s-0.25-1.375 0.313-1.781c0.578-0.406 1.359-0.25 1.766 0.328zM24.672 15.219c1.437 2.359 0.828 5.469-1.437 7.063-0.953 0.672-2.031 0.969-3.109 0.938-0.656 2.578-3.797 3.531-5.75 1.781-0.063 0.047-0.141 0.094-0.203 0.156-2.141 1.484-5.047 0.953-6.531-1.219-0.531-0.781-0.797-1.672-0.828-2.562-3.578-0.594-4.922-5.141-2.25-7.641-1.547-2.562 0.031-5.875 2.922-6.281 1.375-3.625 5.891-5.344 8.953-2.969 3.687-1.219 7.453 1.609 7.156 5.531 2.25 0.688 2.891 3.656 1.078 5.203zM7.109 4.906c0.281 0.422 0.187 1-0.234 1.297-0.406 0.281-0.984 0.187-1.266-0.234s-0.187-1 0.234-1.297c0.406-0.281 0.984-0.187 1.266 0.234zM9.594 0.516c0.078 0.344-0.141 0.688-0.484 0.766s-0.688-0.141-0.766-0.5c-0.063-0.344 0.156-0.688 0.5-0.766s0.688 0.141 0.75 0.5zM28.125 15.328c0.094 0.422-0.172 0.828-0.578 0.906-0.406 0.094-0.812-0.172-0.891-0.578-0.094-0.422 0.172-0.828 0.578-0.922 0.406-0.078 0.812 0.187 0.891 0.594zM17.75 1.375c0.328 0.562 0.156 1.312-0.422 1.656-0.562 0.344-1.297 0.156-1.625-0.406-0.344-0.578-0.156-1.328 0.406-1.672s1.297-0.156 1.641 0.422zM29.406 11.625c0.078 0.313-0.125 0.609-0.422 0.688-0.313 0.063-0.609-0.141-0.672-0.438-0.063-0.313 0.125-0.625 0.438-0.688 0.297-0.063 0.594 0.125 0.656 0.438zM26.422 7.859c0.313 0.469 0.203 1.109-0.25 1.437-0.469 0.313-1.109 0.203-1.422-0.266s-0.203-1.109 0.266-1.437c0.453-0.328 1.094-0.203 1.406 0.266z"></path>
</svg>
