<!-- Generated by IcoMoon.io -->
<svg version="1.1" xmlns="http://www.w3.org/2000/svg" width="12" height="28" viewBox="0 0 12 28">
<title>mobile</title>
<path d="M7.25 22c0-0.688-0.562-1.25-1.25-1.25s-1.25 0.562-1.25 1.25 0.562 1.25 1.25 1.25 1.25-0.562 1.25-1.25zM10.5 19.5v-11c0-0.266-0.234-0.5-0.5-0.5h-8c-0.266 0-0.5 0.234-0.5 0.5v11c0 0.266 0.234 0.5 0.5 0.5h8c0.266 0 0.5-0.234 0.5-0.5zM7.5 6.25c0-0.141-0.109-0.25-0.25-0.25h-2.5c-0.141 0-0.25 0.109-0.25 0.25s0.109 0.25 0.25 0.25h2.5c0.141 0 0.25-0.109 0.25-0.25zM12 6v16c0 1.094-0.906 2-2 2h-8c-1.094 0-2-0.906-2-2v-16c0-1.094 0.906-2 2-2h8c1.094 0 2 0.906 2 2z"></path>
</svg>
