<!-- Generated by IcoMoon.io -->
<svg version="1.1" xmlns="http://www.w3.org/2000/svg" width="27" height="28" viewBox="0 0 27 28">
<title>pocketpocket</title>
<path d="M24.453 2c1.359 0 2.422 1.094 2.422 2.438v8.109c0 7.484-5.984 13.453-13.422 13.453-7.469 0-13.453-5.969-13.453-13.453v-8.109c0-1.328 1.109-2.438 2.438-2.438h22.016zM13.453 18.625c0.469 0 0.938-0.187 1.281-0.516l6.312-6.062c0.359-0.344 0.578-0.828 0.578-1.328 0-1.016-0.828-1.844-1.844-1.844-0.484 0-0.938 0.187-1.281 0.516l-5.047 4.844-5.047-4.844c-0.344-0.328-0.797-0.516-1.266-0.516-1.016 0-1.844 0.828-1.844 1.844 0 0.5 0.203 0.984 0.562 1.328l6.328 6.062c0.328 0.328 0.797 0.516 1.266 0.516z"></path>
</svg>
