<!-- Generated by IcoMoon.io -->
<svg version="1.1" xmlns="http://www.w3.org/2000/svg" width="24" height="28" viewBox="0 0 24 28">
<title>share</title>
<path d="M19 16c2.766 0 5 2.234 5 5s-2.234 5-5 5-5-2.234-5-5c0-0.172 0.016-0.359 0.031-0.531l-5.625-2.812c-0.891 0.828-2.094 1.344-3.406 1.344-2.766 0-5-2.234-5-5s2.234-5 5-5c1.313 0 2.516 0.516 3.406 1.344l5.625-2.812c-0.016-0.172-0.031-0.359-0.031-0.531 0-2.766 2.234-5 5-5s5 2.234 5 5-2.234 5-5 5c-1.313 0-2.516-0.516-3.406-1.344l-5.625 2.812c0.016 0.172 0.031 0.359 0.031 0.531s-0.016 0.359-0.031 0.531l5.625 2.812c0.891-0.828 2.094-1.344 3.406-1.344z"></path>
</svg>
