<!-- Generated by IcoMoon.io -->
<svg version="1.1" xmlns="http://www.w3.org/2000/svg" width="28" height="28" viewBox="0 0 28 28">
<title>steam</title>
<path d="M24.719 9.094c0 2.109-1.719 3.813-3.813 3.813-2.109 0-3.813-1.703-3.813-3.813s1.703-3.813 3.813-3.813c2.094 0 3.813 1.703 3.813 3.813zM12.688 20.687c0-2.172-1.734-3.906-3.906-3.906-0.281 0-0.562 0.031-0.844 0.094l1.625 0.656c1.594 0.641 2.375 2.438 1.734 4.031s-2.453 2.375-4.047 1.719c-0.641-0.25-1.281-0.516-1.922-0.766 0.656 1.234 1.953 2.078 3.453 2.078 2.172 0 3.906-1.734 3.906-3.906zM25.656 9.109c0-2.625-2.141-4.766-4.766-4.766-2.641 0-4.781 2.141-4.781 4.766 0 2.641 2.141 4.766 4.781 4.766 2.625 0 4.766-2.125 4.766-4.766zM28 9.109c0 3.938-3.187 7.109-7.109 7.109l-6.828 4.984c-0.25 2.688-2.531 4.797-5.281 4.797-2.531 0-4.672-1.797-5.187-4.188l-3.594-1.437v-6.703l6.078 2.453c0.797-0.484 1.719-0.75 2.703-0.75 0.187 0 0.375 0.016 0.547 0.031l4.438-6.359c0.031-3.891 3.219-7.047 7.125-7.047 3.922 0 7.109 3.187 7.109 7.109z"></path>
</svg>
