<!-- Generated by IcoMoon.io -->
<svg version="1.1" xmlns="http://www.w3.org/2000/svg" width="30" height="28" viewBox="0 0 30 28">
<title>stumbleupon</title>
<path d="M16.594 11.125v-1.844c0-0.875-0.719-1.594-1.594-1.594s-1.594 0.719-1.594 1.594v9.562c0 3.656-3.031 6.609-6.703 6.609-3.703 0-6.703-3-6.703-6.703v-4.156h5.125v4.094c0 0.891 0.719 1.594 1.594 1.594s1.594-0.703 1.594-1.594v-9.688c0-3.578 3.063-6.453 6.687-6.453 3.641 0 6.687 2.891 6.687 6.5v2.125l-3.047 0.906zM24.875 14.594h5.125v4.156c0 3.703-3 6.703-6.703 6.703-3.687 0-6.703-2.969-6.703-6.641v-4.188l2.047 0.953 3.047-0.906v4.219c0 0.875 0.719 1.578 1.594 1.578s1.594-0.703 1.594-1.578v-4.297z"></path>
</svg>
