<!-- Generated by IcoMoon.io -->
<svg version="1.1" xmlns="http://www.w3.org/2000/svg" width="28" height="28" viewBox="0 0 28 28">
<title>vimeo</title>
<path d="M26.703 8.094c-0.109 2.469-1.844 5.859-5.187 10.172-3.469 4.484-6.375 6.734-8.781 6.734-1.484 0-2.734-1.375-3.75-4.109-0.688-2.5-1.375-5.016-2.063-7.531-0.75-2.734-1.578-4.094-2.453-4.094-0.187 0-0.844 0.391-1.984 1.188l-1.203-1.531c1.25-1.109 2.484-2.234 3.719-3.313 1.656-1.469 2.922-2.203 3.766-2.281 1.984-0.187 3.187 1.156 3.656 4.047 0.484 3.125 0.844 5.078 1.031 5.828 0.578 2.594 1.188 3.891 1.875 3.891 0.531 0 1.328-0.828 2.406-2.516 1.062-1.687 1.625-2.969 1.703-3.844 0.141-1.453-0.422-2.172-1.703-2.172-0.609 0-1.234 0.141-1.891 0.406 1.25-4.094 3.641-6.078 7.172-5.969 2.609 0.078 3.844 1.781 3.687 5.094z"></path>
</svg>
