<!-- Generated by IcoMoon.io -->
<svg version="1.1" xmlns="http://www.w3.org/2000/svg" width="24" height="28" viewBox="0 0 24 28">
<title>yelp</title>
<path d="M12.078 20.609v1.984c-0.016 4.406-0.016 4.562-0.094 4.766-0.125 0.328-0.406 0.547-0.797 0.625-1.125 0.187-4.641-1.109-5.375-1.984-0.156-0.172-0.234-0.375-0.266-0.562-0.016-0.141 0.016-0.281 0.063-0.406 0.078-0.219 0.219-0.391 3.359-4.109 0 0 0.016 0 0.938-1.094 0.313-0.391 0.875-0.516 1.391-0.328 0.516 0.203 0.797 0.641 0.781 1.109zM9.75 16.688c-0.031 0.547-0.344 0.953-0.812 1.094l-1.875 0.609c-4.203 1.344-4.344 1.375-4.562 1.375-0.344-0.016-0.656-0.219-0.844-0.562-0.125-0.25-0.219-0.672-0.266-1.172-0.172-1.531 0.031-3.828 0.484-4.547 0.219-0.344 0.531-0.516 0.875-0.5 0.234 0 0.422 0.094 4.953 1.937 0 0-0.016 0.016 1.313 0.531 0.469 0.187 0.766 0.672 0.734 1.234zM22.656 21.328c-0.156 1.125-2.484 4.078-3.547 4.5-0.359 0.141-0.719 0.109-0.984-0.109-0.187-0.141-0.375-0.422-2.875-4.484l-0.734-1.203c-0.281-0.438-0.234-1 0.125-1.437 0.344-0.422 0.844-0.562 1.297-0.406 0 0 0.016 0.016 1.859 0.625 4.203 1.375 4.344 1.422 4.516 1.563 0.281 0.219 0.406 0.547 0.344 0.953zM12.156 11.453c0.078 1.625-0.609 1.828-0.844 1.906-0.219 0.063-0.906 0.266-1.781-1.109-5.75-9.078-5.906-9.344-5.906-9.344-0.078-0.328 0.016-0.688 0.297-0.969 0.859-0.891 5.531-2.203 6.75-1.891 0.391 0.094 0.672 0.344 0.766 0.703 0.063 0.391 0.625 8.813 0.719 10.703zM22.5 13.141c0.031 0.391-0.109 0.719-0.406 0.922-0.187 0.125-0.375 0.187-5.141 1.344-0.766 0.172-1.188 0.281-1.422 0.359l0.016-0.031c-0.469 0.125-1-0.094-1.297-0.562s-0.281-0.984 0-1.359c0 0 0.016-0.016 1.172-1.594 2.562-3.5 2.688-3.672 2.875-3.797 0.297-0.203 0.656-0.203 1.016-0.031 1.016 0.484 3.063 3.531 3.187 4.703v0.047z"></path>
</svg>
